<svg width="35" height="36" viewBox="0 0 35 36" fill="none" xmlns="http://www.w3.org/2000/svg">
<g clip-path="url(#clip0_3224_13)">
<path d="M4.375 26.8767C5.53532 26.8767 6.64812 27.3376 7.46859 28.1581C8.28906 28.9786 8.75 30.0914 8.75 31.2517C8.75 32.412 8.28906 33.5248 7.46859 34.3453C6.64812 35.1658 5.53532 35.6267 4.375 35.6267C3.21468 35.6267 2.10188 35.1658 1.28141 34.3453C0.460936 33.5248 0 32.412 0 31.2517C0 30.0914 0.460936 28.9786 1.28141 28.1581C2.10188 27.3376 3.21468 26.8767 4.375 26.8767ZM30.625 26.8767C31.7853 26.8767 32.8981 27.3376 33.7186 28.1581C34.5391 28.9786 35 30.0914 35 31.2517C35 32.412 34.5391 33.5248 33.7186 34.3453C32.8981 35.1658 31.7853 35.6267 30.625 35.6267C29.4647 35.6267 28.3519 35.1658 27.5314 34.3453C26.7109 33.5248 26.25 32.412 26.25 31.2517C26.25 30.0914 26.7109 28.9786 27.5314 28.1581C28.3519 27.3376 29.4647 26.8767 30.625 26.8767ZM4.375 29.0642C3.79484 29.0642 3.23844 29.2947 2.8282 29.7049C2.41797 30.1151 2.1875 30.6715 2.1875 31.2517C2.1875 31.8319 2.41797 32.3883 2.8282 32.7985C3.23844 33.2087 3.79484 33.4392 4.375 33.4392C4.95516 33.4392 5.51156 33.2087 5.9218 32.7985C6.33203 32.3883 6.5625 31.8319 6.5625 31.2517C6.5625 30.6715 6.33203 30.1151 5.9218 29.7049C5.51156 29.2947 4.95516 29.0642 4.375 29.0642ZM30.625 29.0642C30.0448 29.0642 29.4884 29.2947 29.0782 29.7049C28.668 30.1151 28.4375 30.6715 28.4375 31.2517C28.4375 31.8319 28.668 32.3883 29.0782 32.7985C29.4884 33.2087 30.0448 33.4392 30.625 33.4392C31.2052 33.4392 31.7616 33.2087 32.1718 32.7985C32.582 32.3883 32.8125 31.8319 32.8125 31.2517C32.8125 30.6715 32.582 30.1151 32.1718 29.7049C31.7616 29.2947 31.2052 29.0642 30.625 29.0642ZM18.5938 10.4705V17.033H25.1562V19.2205H18.5938V25.783H16.4062V19.2205H9.84375V17.033H16.4062V10.4705H18.5938ZM4.375 0.626709C5.53532 0.626709 6.64812 1.08765 7.46859 1.90812C8.28906 2.72859 8.75 3.84139 8.75 5.00171C8.75 6.16203 8.28906 7.27483 7.46859 8.0953C6.64812 8.91577 5.53532 9.37671 4.375 9.37671C3.21468 9.37671 2.10188 8.91577 1.28141 8.0953C0.460936 7.27483 0 6.16203 0 5.00171C0 3.84139 0.460936 2.72859 1.28141 1.90812C2.10188 1.08765 3.21468 0.626709 4.375 0.626709ZM30.625 0.626709C31.7853 0.626709 32.8981 1.08765 33.7186 1.90812C34.5391 2.72859 35 3.84139 35 5.00171C35 6.16203 34.5391 7.27483 33.7186 8.0953C32.8981 8.91577 31.7853 9.37671 30.625 9.37671C29.4647 9.37671 28.3519 8.91577 27.5314 8.0953C26.7109 7.27483 26.25 6.16203 26.25 5.00171C26.25 3.84139 26.7109 2.72859 27.5314 1.90812C28.3519 1.08765 29.4647 0.626709 30.625 0.626709ZM30.625 2.81421C30.0448 2.81421 29.4884 3.04468 29.0782 3.45491C28.668 3.86515 28.4375 4.42155 28.4375 5.00171C28.4375 5.58187 28.668 6.13827 29.0782 6.54851C29.4884 6.95874 30.0448 7.18921 30.625 7.18921C31.2052 7.18921 31.7616 6.95874 32.1718 6.54851C32.582 6.13827 32.8125 5.58187 32.8125 5.00171C32.8125 4.42155 32.582 3.86515 32.1718 3.45491C31.7616 3.04468 31.2052 2.81421 30.625 2.81421ZM4.375 2.81421C3.79484 2.81421 3.23844 3.04468 2.8282 3.45491C2.41797 3.86515 2.1875 4.42155 2.1875 5.00171C2.1875 5.58187 2.41797 6.13827 2.8282 6.54851C3.23844 6.95874 3.79484 7.18921 4.375 7.18921C4.95516 7.18921 5.51156 6.95874 5.9218 6.54851C6.33203 6.13827 6.5625 5.58187 6.5625 5.00171C6.5625 4.42155 6.33203 3.86515 5.9218 3.45491C5.51156 3.04468 4.95516 2.81421 4.375 2.81421Z" fill="#201B10"/>
<path d="M23.0541 32.4002C23.1656 33.1406 23.3822 33.8461 23.6906 34.5001C21.7121 35.2466 19.6147 35.6283 17.5 35.6267C15.3202 35.6267 13.2344 35.2286 11.3094 34.5001C11.6167 33.8461 11.8344 33.1406 11.9459 32.4002C13.6675 33.0717 15.5411 33.4392 17.5 33.4392C19.4589 33.4392 21.3325 33.0717 23.0541 32.4002ZM33.8734 11.9361C34.6199 13.9146 35.0016 16.0121 35 18.1267C35 20.3066 34.6019 22.3923 33.8734 24.3173C33.2076 24.0054 32.5004 23.791 31.7734 23.6808C32.445 21.9592 32.8125 20.0856 32.8125 18.1267C32.8125 16.1678 32.445 14.2942 31.7734 12.5727C32.5004 12.4624 33.2076 12.248 33.8734 11.9361ZM1.12657 11.9361C1.78063 12.2434 2.4861 12.4611 3.22657 12.5727C2.53867 14.3435 2.18632 16.2269 2.18751 18.1267C2.18751 20.0856 2.55501 21.9592 3.22657 23.6808C2.49963 23.791 1.79237 24.0054 1.12657 24.3173C0.380101 22.3388 -0.00158884 20.2414 4.97083e-06 18.1267C4.97083e-06 15.9469 0.39813 13.8611 1.12657 11.9361ZM17.5 0.626714C19.6798 0.626714 21.7656 1.02484 23.6906 1.75328C23.3787 2.41908 23.1643 3.12634 23.0541 3.85328C21.2832 3.16538 19.3998 2.81303 17.5 2.81421C15.5411 2.81421 13.6675 3.18171 11.9459 3.85328C11.8357 3.12634 11.6213 2.41908 11.3094 1.75328C13.2879 1.00681 15.3853 0.62512 17.5 0.626714Z" fill="#201B10"/>
</g>
<defs>
<clipPath id="clip0_3224_13">
<rect width="35" height="35" fill="white" transform="translate(0 0.626709)"/>
</clipPath>
</defs>
</svg>
