<svg width="35" height="36" viewBox="0 0 35 36" fill="none" xmlns="http://www.w3.org/2000/svg">
<path d="M17.5005 11.6234V18.1266L21.565 22.1911" stroke="#201B10" stroke-width="2.43872" stroke-linecap="round" stroke-linejoin="round"/>
<path d="M8.08167 28.6059C13.4846 33.48 21.6733 33.5193 27.0231 28.7094L27.6871 29.3735C21.9655 34.5558 13.1825 34.5043 7.4176 29.269L8.08167 28.6059ZM28.6432 8.0434C33.8783 13.8081 33.9284 22.5912 28.7477 28.3129L28.0836 27.6489C32.8935 22.299 32.8546 14.1093 27.9801 8.70648L28.6432 8.0434ZM3.38635 16.7944C3.22396 18.7371 3.46079 20.6954 4.08655 22.5473C4.71211 24.3987 5.71134 26.0986 7.01819 27.5444L6.3551 28.2075C4.94586 26.6583 3.86877 24.8334 3.1969 22.8442C2.52526 20.8556 2.27469 18.7521 2.45569 16.6664L3.38635 16.7944ZM8.4342 9.33441L8.42932 10.2729L7.34534 10.268L7.9635 9.64984L8.27893 9.33344L8.4342 9.33441ZM7.31409 6.87933C13.0352 1.69768 21.8178 1.74881 27.5826 6.98285L26.9196 7.64594C21.5167 2.77265 13.3266 2.73291 7.97717 7.54242L7.31409 6.87933ZM5.49573 6.54828L4.56213 7.48187L4.55627 6.40082L5.49475 6.39496L5.49573 6.54828Z" stroke="#201B10" stroke-width="1.5"/>
</svg>
