<svg width="40" height="41" viewBox="0 0 40 41" fill="none" xmlns="http://www.w3.org/2000/svg">
<path d="M20 4.25C16.7861 4.25 13.6443 5.20305 10.972 6.98862C8.29969 8.77419 6.21689 11.3121 4.98696 14.2814C3.75704 17.2507 3.43524 20.518 4.06225 23.6702C4.68926 26.8224 6.23692 29.7179 8.50952 31.9905C10.7821 34.2631 13.6776 35.8107 16.8298 36.4378C19.982 37.0648 23.2493 36.743 26.2186 35.513C29.1879 34.2831 31.7258 32.2003 33.5114 29.528C35.297 26.8557 36.25 23.7139 36.25 20.5C36.2455 16.1916 34.5319 12.061 31.4855 9.01454C28.439 5.96806 24.3084 4.25455 20 4.25ZM20 34.25C17.2805 34.25 14.6221 33.4436 12.3609 31.9327C10.0997 30.4218 8.33737 28.2744 7.29666 25.7619C6.25596 23.2494 5.98366 20.4847 6.51421 17.8175C7.04476 15.1503 8.35432 12.7003 10.2773 10.7773C12.2003 8.85431 14.6503 7.54475 17.3175 7.0142C19.9848 6.48366 22.7494 6.75595 25.2619 7.79666C27.7744 8.83736 29.9218 10.5997 31.4327 12.8609C32.9436 15.1221 33.75 17.7805 33.75 20.5C33.7459 24.1455 32.2959 27.6404 29.7182 30.2182C27.1404 32.7959 23.6455 34.2459 20 34.25ZM12.5 17.375C12.5 17.0042 12.61 16.6416 12.816 16.3333C13.022 16.025 13.3149 15.7846 13.6575 15.6427C14.0001 15.5008 14.3771 15.4637 14.7408 15.536C15.1045 15.6084 15.4386 15.787 15.7008 16.0492C15.9631 16.3114 16.1416 16.6455 16.214 17.0092C16.2863 17.3729 16.2492 17.7499 16.1073 18.0925C15.9654 18.4351 15.725 18.728 15.4167 18.934C15.1084 19.14 14.7458 19.25 14.375 19.25C13.8777 19.25 13.4008 19.0525 13.0492 18.7008C12.6976 18.3492 12.5 17.8723 12.5 17.375ZM27.5 17.375C27.5 17.7458 27.39 18.1084 27.184 18.4167C26.978 18.725 26.6851 18.9654 26.3425 19.1073C25.9999 19.2492 25.6229 19.2863 25.2592 19.214C24.8955 19.1416 24.5614 18.963 24.2992 18.7008C24.037 18.4386 23.8584 18.1045 23.786 17.7408C23.7137 17.3771 23.7508 17.0001 23.8927 16.6575C24.0346 16.3149 24.275 16.022 24.5833 15.816C24.8917 15.61 25.2542 15.5 25.625 15.5C26.1223 15.5 26.5992 15.6975 26.9508 16.0492C27.3025 16.4008 27.5 16.8777 27.5 17.375ZM27.3313 27.375C27.4217 27.5173 27.4824 27.6764 27.5098 27.8427C27.5372 28.0091 27.5306 28.1792 27.4905 28.343C27.4504 28.5067 27.3775 28.6607 27.2764 28.7955C27.1753 28.9304 27.0479 29.0434 26.9019 29.1278C26.756 29.2122 26.5944 29.2661 26.4271 29.2865C26.2597 29.3068 26.09 29.2931 25.9281 29.2461C25.7662 29.1991 25.6154 29.1199 25.4849 29.0131C25.3545 28.9064 25.2469 28.7744 25.1688 28.625C24.0016 26.6078 22.1672 25.5 20 25.5C17.8328 25.5 15.9984 26.6094 14.8313 28.625C14.7531 28.7744 14.6456 28.9064 14.5151 29.0131C14.3846 29.1199 14.2338 29.1991 14.0719 29.2461C13.91 29.2931 13.7403 29.3068 13.5729 29.2865C13.4056 29.2661 13.2441 29.2122 13.0981 29.1278C12.9521 29.0434 12.8248 28.9304 12.7236 28.7955C12.6225 28.6607 12.5497 28.5067 12.5095 28.343C12.4694 28.1792 12.4629 28.0091 12.4902 27.8427C12.5176 27.6764 12.5783 27.5173 12.6688 27.375C14.2766 24.5953 16.9484 23 20 23C23.0516 23 25.7234 24.5938 27.3313 27.375Z" fill="#201B10"/>
</svg>
