<svg width="41" height="41" viewBox="0 0 41 41" fill="none" xmlns="http://www.w3.org/2000/svg">
<path d="M20.3468 4.41162C17.1329 4.41162 13.9911 5.36467 11.3188 7.15024C8.64649 8.93581 6.56369 11.4737 5.33377 14.443C4.10384 17.4123 3.78204 20.6796 4.40905 23.8318C5.03606 26.984 6.58372 29.8795 8.85632 32.1521C11.1289 34.4247 14.0244 35.9724 17.1766 36.5994C20.3288 37.2264 23.5961 36.9046 26.5654 35.6747C29.5347 34.4447 32.0726 32.3619 33.8582 29.6896C35.6438 27.0173 36.5968 23.8756 36.5968 20.6616C36.5923 16.3532 34.8787 12.2226 31.8323 9.17616C28.7858 6.12968 24.6552 4.41617 20.3468 4.41162ZM20.3468 34.4116C17.6273 34.4116 14.9689 33.6052 12.7077 32.0943C10.4465 30.5835 8.68417 28.436 7.64347 25.9235C6.60276 23.411 6.33046 20.6464 6.86101 17.9791C7.39156 15.3119 8.70112 12.8619 10.6241 10.9389C12.5471 9.01593 14.9971 7.70637 17.6643 7.17582C20.3316 6.64528 23.0962 6.91757 25.6087 7.95828C28.1212 8.99898 30.2686 10.7614 31.7795 13.0225C33.2904 15.2837 34.0968 17.9421 34.0968 20.6616C34.0927 24.3071 32.6427 27.802 30.065 30.3798C27.4872 32.9575 23.9923 34.4075 20.3468 34.4116ZM12.8468 17.5366C12.8468 17.1658 12.9568 16.8033 13.1628 16.4949C13.3688 16.1866 13.6617 15.9463 14.0043 15.8043C14.3469 15.6624 14.7239 15.6253 15.0876 15.6976C15.4513 15.77 15.7854 15.9486 16.0476 16.2108C16.3099 16.473 16.4884 16.8071 16.5608 17.1708C16.6331 17.5345 16.596 17.9115 16.4541 18.2542C16.3122 18.5968 16.0718 18.8896 15.7635 19.0956C15.4552 19.3017 15.0926 19.4116 14.7218 19.4116C14.2245 19.4116 13.7476 19.2141 13.396 18.8624C13.0444 18.5108 12.8468 18.0339 12.8468 17.5366ZM27.8468 17.5366C27.8468 17.9075 27.7368 18.27 27.5308 18.5783C27.3248 18.8867 27.0319 19.127 26.6893 19.2689C26.3467 19.4108 25.9697 19.4479 25.606 19.3756C25.2423 19.3032 24.9082 19.1247 24.646 18.8624C24.3838 18.6002 24.2052 18.2661 24.1328 17.9024C24.0605 17.5387 24.0976 17.1617 24.2395 16.8191C24.3815 16.4765 24.6218 16.1836 24.9301 15.9776C25.2385 15.7716 25.601 15.6616 25.9718 15.6616C26.4691 15.6616 26.946 15.8592 27.2976 16.2108C27.6493 16.5624 27.8468 17.0393 27.8468 17.5366Z" fill="#201B10"/>
<path d="M27.1704 23.5296C27.8423 23.7798 28.1924 24.5339 27.8435 25.1602C27.206 26.3042 26.3112 27.2918 25.2229 28.0409C23.7764 29.0366 22.0584 29.5626 20.3025 29.5475C18.5465 29.5325 16.8378 28.977 15.4086 27.9566C14.3334 27.189 13.4556 26.1862 12.8379 25.0314C12.4997 24.3992 12.8628 23.6512 13.5388 23.4126C14.2149 23.1739 14.9454 23.5396 15.3246 24.148C15.7366 24.8089 16.2766 25.3862 16.9172 25.8436C17.9123 26.5541 19.1021 26.9408 20.3248 26.9513C21.5474 26.9618 22.7436 26.5955 23.7508 25.9023C24.3992 25.4559 24.949 24.888 25.3723 24.2343C25.7619 23.6325 26.4985 23.2794 27.1704 23.5296Z" fill="#201B10"/>
</svg>
